# xmcd CD database file
#
# Track frame offsets:
#	150
#	21063
#	48996
#	77573
#	104746
#	132224
#	157197
#	177336
#
# Disc length: 2616 seconds
#
# Revision: 2
# Processed by: cddbd v1.5.2PL0 Copyright (c) Steve Scherf et al.
# Submitted via: CDex 1.51
#
DISCID=640a3608
DTITLE=Elana Stone - In The Garden Of Wild Things
DYEAR=2003
DGENRE=Jazz
TTITLE0=Everybody's Doing It
TTITLE1=Give Me The NIght
TTITLE2=Come On Over
TTITLE3=Song For Jamesy
TTITLE4=Returning
TTITLE5=Seaplane
TTITLE6=The Chance
TTITLE7=Miser of Love
EXTD=YEAR: 2003
EXTT0=
EXTT1=
EXTT2=
EXTT3=
EXTT4=
EXTT5=
EXTT6=
EXTT7=
PLAYORDER=
